<?xml version="1.0" encoding="utf-8"?>
<!-- Generator: Adobe Illustrator 24.1.2, SVG Export Plug-In . SVG Version: 6.00 Build 0)  -->
<svg version="1.1" id="Layer_1" xmlns="http://www.w3.org/2000/svg" xmlns:xlink="http://www.w3.org/1999/xlink" x="0px" y="0px"
	 viewBox="0 0 4096.79 3462.13" style="enable-background:new 0 0 4096.79 3462.13;" xml:space="preserve">
<style type="text/css">
	.st0{clip-path:url(#SVGID_2_);fill:#D03232;}
</style>
<g>
	<defs>
		<rect id="SVGID_1_" x="51.56" y="259.56" width="4096.79" height="3462.13"/>
	</defs>
	<clipPath id="SVGID_2_">
		<use xlink:href="#SVGID_1_"  style="overflow:visible;"/>
	</clipPath>
	<path class="st0" d="M2333.16,1155.02c-14.63,12.12-29.54,24.32-44.29,36.7c-86.19,72.37-172.35,144.79-258.52,217.18
		c-2.04,1.71-4.07,3.44-6.2,5.03c-2.5,1.86-5.29,1.43-7.2-0.56c-4.61-4.79-8.97-9.84-13.25-14.94
		c-89.91-107.12-179.8-214.26-269.67-321.41c-5.55-6.62-10.93-13.39-16.59-20.33c1.72-7.47,8.21-10.43,13.03-14.51
		c36.09-30.55,72.35-60.89,108.58-91.28c79.09-66.34,158.2-132.64,237.28-198.98c76.02-63.77,151.96-127.65,228.04-191.35
		c88.32-73.96,176.76-147.79,265.14-221.68c1.53-1.28,3.02-2.62,4.56-3.89c13.52-11.16,13.49-11.13,24.76,2.31
		c92.85,110.73,185.72,221.45,278.59,332.18c1.28,1.53,2.65,2.99,3.92,4.53c7.84,9.57,7.97,9.94-0.8,17.55
		c-12.57,10.91-25.36,21.58-38.12,32.28c-70.42,59.05-140.88,118.05-211.24,177.18c-5.54,4.66-11.95,8.56-15.56,15.13
		c0.7,5.94,5.25,9.28,8.58,13.29c45.57,54.78,91.23,109.49,136.85,164.23c71.62,85.95,144.07,171.23,214.63,258.04
		c102.56,126.2,170.43,269.33,204.07,428.58c10.61,50.22,17.43,100.88,20.37,152.16c1.53,26.62,2.57,53.21,1.75,79.82
		c-1.52,49.24-5.7,98.22-13.82,146.92c-11.53,69.19-29.7,136.48-55.14,201.78c-54.26,139.26-135.32,260.7-243.25,364.13
		c-111.91,107.25-241.49,185.24-388.76,233.52c-62.73,20.57-126.97,34.57-192.64,42.41c-51.72,6.17-103.51,8.96-155.47,6.51
		c-136.91-6.45-269.1-33.66-394.27-91.18c-105.67-48.56-200.52-112.77-283.86-194.06c-36.8-35.89-69.97-74.94-102.93-114.23
		c-74.03-88.27-148.08-176.54-222.13-264.8c-14.55-17.35-29.18-34.63-43.66-52.04c-5.38-6.46-5.24-7.53,1.1-12.88
		c22.39-18.9,44.83-37.75,67.28-56.57c63.29-53.04,126.6-106.07,189.89-159.1c2.55-2.14,5.12-4.26,7.62-6.46
		c3.03-2.67,5.96-2.51,8.67,0.35c1.83,1.93,3.45,4.06,5.16,6.1c96.29,114.8,192.65,229.56,288.85,344.43
		c41.36,49.39,87.94,92.71,143.8,125.43c49.35,28.91,102.15,47.89,158.81,56.71c68.88,10.72,136.64,5.16,203.84-11.59
		c72.96-18.18,140.94-48.36,205.02-87.22c104.52-63.39,196.57-141.5,274.04-236.29c51.8-63.37,93.56-132.57,120.46-210.32
		c21.4-61.84,30.87-125.31,26.29-190.55c-3.62-51.54-16.49-100.97-37.33-148.32c-22.73-51.63-53.77-97.88-89.97-140.91
		c-60.88-72.36-121.58-144.87-182.38-217.31c-50.52-60.19-101.04-120.39-151.62-180.53
		C2342.09,1162.17,2339.18,1157.52,2333.16,1155.02"/>
	<path class="st0" d="M1701.23,1068.31c2.45,1.91,4.79,3.2,6.41,5.1c13.4,15.7,26.71,31.47,39.97,47.29
		c66.32,79.05,132.62,158.13,198.94,237.19c16.26,19.38,32.59,38.7,48.87,58.07c2.14,2.55,4.09,5.25,6.19,7.83
		c2.48,3.06,2.39,6.19-0.25,8.88c-2.79,2.84-5.95,5.32-9,7.88c-123.94,103.98-247.89,207.95-371.82,311.93
		c-75.99,63.76-152,127.49-227.92,191.34c-14.03,11.8-13.02,11.99-24.52-1.71c-92.03-109.62-184.08-219.23-276.11-328.85
		c-3.85-4.59-7.71-9.18-11.39-13.9c-4.78-6.13-4.77-7.81,1.56-13.17c27.94-23.67,56-47.2,84.05-70.73
		c72.42-60.77,144.85-121.52,217.29-182.27c86.72-72.72,173.47-145.42,260.19-218.14c16.32-13.69,32.56-27.49,48.92-41.13
		C1695.07,1071.85,1698.05,1070.35,1701.23,1068.31"/>
	<path class="st0" d="M749.83,1865.26c14.71-12.51,28.28-24.18,41.99-35.68c72.9-61.2,145.84-122.36,218.77-183.53
		c3.06-2.56,6.1-5.16,9.3-7.54c3.12-2.32,6.48-1.91,8.91,0.88c9.62,11.03,19.14,22.17,28.52,33.41
		c49,58.79,97.89,117.68,146.92,176.44c35.81,42.92,71.81,85.69,107.69,128.57c8.05,9.62,18.34,17.43,24.71,30.33
		c-90.83,76.83-182.19,152.98-273.07,229.33C1050.01,2225.38,774.16,1897.99,749.83,1865.26"/>
</g>
</svg>
